<?xml version="1.0" encoding="UTF-8" standalone="no"?>
<!DOCTYPE svg PUBLIC "-//W3C//DTD SVG 1.1//EN" "http://www.w3.org/Graphics/SVG/1.1/DTD/svg11.dtd">
<svg width="100%" height="100%" viewBox="0 0 1600 350" version="1.1" xmlns="http://www.w3.org/2000/svg" xmlns:xlink="http://www.w3.org/1999/xlink" xml:space="preserve" xmlns:serif="http://www.serif.com/" style="fill-rule:evenodd;clip-rule:evenodd;stroke-linejoin:round;stroke-miterlimit:2;">
    <g transform="matrix(2.40851,0,0,2.40851,-262.914,-901.945)">
        <g transform="matrix(198.709,0,0,198.709,117.023,478.934)">
            <path d="M0.11,-0.296C0.107,-0.295 0.101,-0.293 0.094,-0.29C0.087,-0.287 0.079,-0.284 0.071,-0.281C0.062,-0.278 0.054,-0.274 0.047,-0.27C0.039,-0.266 0.033,-0.262 0.029,-0.259C0.029,-0.259 0.028,-0.261 0.027,-0.265C0.025,-0.269 0.023,-0.274 0.021,-0.28C0.019,-0.286 0.017,-0.292 0.016,-0.299C0.015,-0.305 0.014,-0.311 0.014,-0.316C0.014,-0.319 0.016,-0.324 0.021,-0.329C0.025,-0.334 0.034,-0.34 0.049,-0.345C0.049,-0.346 0.053,-0.347 0.061,-0.349C0.068,-0.351 0.078,-0.353 0.09,-0.356C0.101,-0.358 0.114,-0.36 0.128,-0.362C0.142,-0.364 0.155,-0.365 0.168,-0.365C0.183,-0.365 0.199,-0.364 0.214,-0.362C0.229,-0.359 0.244,-0.356 0.259,-0.353C0.289,-0.38 0.319,-0.4 0.349,-0.413C0.379,-0.425 0.408,-0.431 0.436,-0.431C0.446,-0.431 0.456,-0.43 0.465,-0.429C0.474,-0.428 0.482,-0.426 0.49,-0.425C0.494,-0.424 0.5,-0.422 0.508,-0.42C0.516,-0.417 0.524,-0.413 0.532,-0.408C0.54,-0.402 0.547,-0.394 0.553,-0.385C0.559,-0.375 0.562,-0.363 0.562,-0.348C0.562,-0.331 0.558,-0.316 0.55,-0.305C0.541,-0.294 0.531,-0.285 0.519,-0.278C0.507,-0.271 0.495,-0.267 0.482,-0.264C0.468,-0.261 0.457,-0.26 0.448,-0.26C0.431,-0.26 0.415,-0.261 0.4,-0.264C0.385,-0.267 0.371,-0.27 0.358,-0.274C0.345,-0.278 0.332,-0.282 0.32,-0.287C0.308,-0.291 0.297,-0.294 0.286,-0.297C0.256,-0.27 0.231,-0.237 0.21,-0.2C0.189,-0.162 0.179,-0.122 0.179,-0.081C0.179,-0.047 0.186,-0.022 0.2,-0.006C0.214,0.011 0.234,0.019 0.26,0.019C0.281,0.019 0.3,0.014 0.319,0.005C0.337,-0.004 0.354,-0.016 0.369,-0.029C0.384,-0.042 0.396,-0.055 0.407,-0.069C0.417,-0.082 0.424,-0.093 0.429,-0.102C0.436,-0.121 0.443,-0.14 0.45,-0.16C0.456,-0.179 0.463,-0.195 0.469,-0.21C0.474,-0.225 0.479,-0.237 0.484,-0.246C0.489,-0.255 0.492,-0.259 0.495,-0.259C0.508,-0.259 0.52,-0.254 0.529,-0.245C0.538,-0.236 0.543,-0.226 0.543,-0.217C0.543,-0.213 0.542,-0.21 0.541,-0.207C0.535,-0.196 0.528,-0.184 0.521,-0.171C0.514,-0.158 0.507,-0.145 0.501,-0.132C0.494,-0.118 0.489,-0.104 0.485,-0.091C0.481,-0.078 0.479,-0.065 0.479,-0.053C0.479,-0.046 0.48,-0.04 0.482,-0.036C0.484,-0.031 0.489,-0.029 0.496,-0.029C0.507,-0.029 0.522,-0.036 0.539,-0.05C0.556,-0.063 0.571,-0.085 0.584,-0.116L0.584,-0.117L0.585,-0.117C0.585,-0.117 0.586,-0.117 0.587,-0.118C0.589,-0.118 0.591,-0.117 0.593,-0.115C0.594,-0.114 0.594,-0.114 0.594,-0.113C0.594,-0.113 0.592,-0.107 0.59,-0.095C0.587,-0.083 0.581,-0.07 0.573,-0.056C0.565,-0.042 0.554,-0.029 0.541,-0.017C0.528,-0.005 0.51,0.001 0.489,0.001C0.483,0.001 0.477,-0 0.47,-0.003C0.463,-0.005 0.457,-0.009 0.451,-0.016C0.438,0.013 0.425,0.039 0.412,0.064C0.427,0.067 0.443,0.069 0.459,0.071C0.475,0.072 0.49,0.073 0.505,0.073C0.536,0.073 0.563,0.069 0.588,0.062C0.612,0.054 0.631,0.046 0.645,0.038C0.647,0.037 0.651,0.035 0.658,0.031C0.664,0.026 0.671,0.022 0.678,0.017C0.685,0.012 0.692,0.006 0.699,0.001C0.706,-0.004 0.71,-0.009 0.713,-0.012C0.714,-0.012 0.715,-0.01 0.718,-0.006C0.721,-0.002 0.723,0.003 0.726,0.009C0.729,0.015 0.731,0.022 0.733,0.029C0.735,0.035 0.736,0.042 0.736,0.047C0.736,0.06 0.729,0.072 0.714,0.081C0.699,0.09 0.681,0.098 0.661,0.104C0.64,0.11 0.619,0.114 0.598,0.117C0.576,0.119 0.558,0.12 0.545,0.12C0.517,0.119 0.491,0.117 0.466,0.112C0.441,0.107 0.417,0.101 0.394,0.095C0.384,0.115 0.371,0.129 0.354,0.137C0.337,0.145 0.321,0.149 0.308,0.149C0.307,0.149 0.303,0.149 0.297,0.149C0.29,0.148 0.284,0.147 0.277,0.144C0.27,0.141 0.263,0.136 0.258,0.13C0.252,0.123 0.249,0.114 0.249,0.102C0.249,0.087 0.253,0.075 0.261,0.066C0.269,0.057 0.277,0.051 0.286,0.048C0.276,0.05 0.266,0.051 0.256,0.051C0.232,0.051 0.212,0.047 0.197,0.038C0.181,0.028 0.169,0.017 0.16,0.003C0.151,-0.011 0.144,-0.026 0.141,-0.042C0.137,-0.058 0.135,-0.073 0.135,-0.087C0.135,-0.127 0.143,-0.166 0.16,-0.204C0.176,-0.242 0.195,-0.276 0.217,-0.306C0.195,-0.306 0.175,-0.305 0.157,-0.304C0.139,-0.302 0.123,-0.299 0.11,-0.296ZM0.266,0.101C0.266,0.11 0.269,0.116 0.276,0.12C0.282,0.124 0.29,0.126 0.3,0.126C0.309,0.126 0.318,0.123 0.328,0.117C0.337,0.111 0.347,0.1 0.356,0.083C0.347,0.08 0.339,0.077 0.331,0.074C0.323,0.071 0.315,0.07 0.306,0.07C0.297,0.07 0.289,0.072 0.28,0.077C0.271,0.081 0.266,0.089 0.266,0.101ZM0.376,-0.003C0.366,0.007 0.354,0.017 0.339,0.027C0.324,0.036 0.307,0.043 0.288,0.047C0.29,0.046 0.293,0.046 0.298,0.046C0.311,0.046 0.323,0.047 0.334,0.05C0.345,0.052 0.356,0.054 0.368,0.056C0.374,0.043 0.38,0.029 0.385,0.014C0.39,-0.001 0.396,-0.016 0.402,-0.03C0.398,-0.025 0.394,-0.021 0.39,-0.017C0.385,-0.012 0.381,-0.008 0.376,-0.003ZM0.496,-0.343C0.479,-0.358 0.458,-0.365 0.433,-0.365C0.416,-0.365 0.399,-0.362 0.381,-0.356C0.363,-0.349 0.345,-0.34 0.328,-0.329C0.348,-0.32 0.368,-0.312 0.389,-0.305C0.409,-0.297 0.429,-0.293 0.449,-0.293C0.454,-0.294 0.459,-0.295 0.465,-0.298C0.471,-0.3 0.477,-0.303 0.482,-0.306C0.487,-0.309 0.492,-0.313 0.496,-0.317C0.499,-0.321 0.501,-0.325 0.501,-0.329C0.501,-0.333 0.499,-0.338 0.496,-0.343Z" style="fill:rgb(0,164,255);fill-rule:nonzero;"/>
        </g>
        <g transform="matrix(198.709,0,0,198.709,230.883,478.934)">
            <path d="M0.229,-0.115C0.232,-0.113 0.234,-0.112 0.234,-0.111C0.234,-0.11 0.232,-0.103 0.228,-0.091C0.223,-0.079 0.217,-0.066 0.209,-0.053C0.2,-0.039 0.19,-0.026 0.179,-0.015C0.167,-0.004 0.154,0.002 0.139,0.002C0.126,0.002 0.115,-0.004 0.104,-0.017C0.093,-0.029 0.087,-0.047 0.087,-0.071C0.087,-0.09 0.09,-0.11 0.096,-0.131C0.101,-0.152 0.108,-0.171 0.115,-0.189C0.108,-0.188 0.101,-0.187 0.094,-0.186C0.087,-0.185 0.08,-0.185 0.073,-0.185L0.064,-0.185C0.061,-0.185 0.059,-0.185 0.056,-0.186C0.043,-0.16 0.034,-0.139 0.027,-0.125C0.02,-0.11 0.016,-0.098 0.013,-0.091C0.01,-0.083 0.007,-0.078 0.006,-0.076C0.005,-0.073 0.003,-0.072 0.001,-0.072C-0.004,-0.072 -0.007,-0.074 -0.007,-0.077L-0.007,-0.08C-0.007,-0.081 -0.007,-0.081 -0.006,-0.081C-0.001,-0.094 0.006,-0.112 0.014,-0.135C0.021,-0.157 0.027,-0.178 0.031,-0.197C0.02,-0.204 0.012,-0.213 0.008,-0.224C0.004,-0.234 0.002,-0.243 0.002,-0.25C0.002,-0.257 0.003,-0.263 0.004,-0.267C0.005,-0.27 0.009,-0.272 0.014,-0.272L0.02,-0.272C0.023,-0.272 0.026,-0.271 0.029,-0.27C0.04,-0.267 0.05,-0.265 0.059,-0.263C0.067,-0.261 0.071,-0.26 0.071,-0.259C0.069,-0.254 0.068,-0.252 0.067,-0.251C0.066,-0.249 0.065,-0.248 0.064,-0.247C0.064,-0.246 0.066,-0.245 0.069,-0.244C0.071,-0.243 0.075,-0.243 0.08,-0.242C0.084,-0.241 0.089,-0.241 0.094,-0.241C0.099,-0.24 0.104,-0.24 0.109,-0.24L0.137,-0.24C0.142,-0.247 0.146,-0.254 0.149,-0.261C0.152,-0.267 0.155,-0.273 0.158,-0.28C0.161,-0.287 0.163,-0.293 0.164,-0.298C0.165,-0.298 0.167,-0.297 0.172,-0.294C0.177,-0.291 0.182,-0.287 0.188,-0.282C0.193,-0.277 0.198,-0.272 0.203,-0.267C0.208,-0.261 0.21,-0.255 0.21,-0.249C0.21,-0.239 0.206,-0.226 0.198,-0.211C0.19,-0.196 0.181,-0.179 0.172,-0.162C0.163,-0.144 0.154,-0.126 0.146,-0.107C0.138,-0.088 0.134,-0.071 0.134,-0.054C0.134,-0.047 0.135,-0.041 0.137,-0.036C0.138,-0.031 0.142,-0.028 0.147,-0.028C0.156,-0.028 0.168,-0.035 0.182,-0.049C0.196,-0.062 0.21,-0.084 0.223,-0.115C0.223,-0.115 0.224,-0.115 0.225,-0.116C0.226,-0.116 0.228,-0.116 0.229,-0.115Z" style="fill:rgb(0,164,255);fill-rule:nonzero;"/>
        </g>
        <g transform="matrix(198.709,0,0,198.709,273.009,478.934)">
            <path d="M0.274,-0.116C0.277,-0.114 0.279,-0.113 0.279,-0.112C0.279,-0.109 0.277,-0.101 0.273,-0.087C0.268,-0.073 0.262,-0.058 0.254,-0.042C0.246,-0.026 0.236,-0.012 0.225,0.002C0.213,0.015 0.2,0.021 0.185,0.021C0.175,0.021 0.165,0.017 0.155,0.009C0.144,0 0.137,-0.014 0.132,-0.035C0.129,-0.032 0.126,-0.028 0.123,-0.024C0.119,-0.019 0.114,-0.015 0.109,-0.012C0.103,-0.008 0.096,-0.005 0.089,-0.002C0.081,0.001 0.071,0.002 0.06,0.002C0.045,0.002 0.032,-0.002 0.023,-0.009C0.013,-0.016 0.005,-0.025 0,-0.036C-0.005,-0.047 -0.009,-0.058 -0.011,-0.069C-0.013,-0.08 -0.014,-0.089 -0.014,-0.097C-0.014,-0.116 -0.01,-0.135 -0.003,-0.156C0.004,-0.176 0.014,-0.194 0.028,-0.211C0.041,-0.228 0.056,-0.241 0.074,-0.252C0.091,-0.263 0.111,-0.268 0.132,-0.268C0.147,-0.268 0.158,-0.266 0.167,-0.262C0.175,-0.257 0.183,-0.253 0.19,-0.248C0.191,-0.25 0.192,-0.252 0.193,-0.255C0.193,-0.257 0.193,-0.259 0.194,-0.26C0.195,-0.26 0.198,-0.259 0.203,-0.256C0.208,-0.253 0.214,-0.249 0.22,-0.244C0.226,-0.239 0.231,-0.233 0.236,-0.228C0.241,-0.222 0.243,-0.216 0.243,-0.21C0.243,-0.205 0.242,-0.2 0.24,-0.195C0.238,-0.19 0.236,-0.184 0.233,-0.179L0.232,-0.179C0.227,-0.169 0.221,-0.158 0.215,-0.147C0.208,-0.135 0.202,-0.123 0.197,-0.111C0.192,-0.099 0.187,-0.087 0.184,-0.074C0.18,-0.061 0.178,-0.049 0.178,-0.037C0.178,-0.015 0.183,-0.004 0.192,-0.004C0.201,-0.004 0.213,-0.013 0.228,-0.032C0.243,-0.05 0.256,-0.078 0.268,-0.115C0.268,-0.116 0.269,-0.116 0.27,-0.116L0.274,-0.116ZM0.13,-0.054C0.13,-0.077 0.134,-0.1 0.141,-0.124C0.148,-0.148 0.156,-0.169 0.163,-0.186C0.157,-0.193 0.151,-0.198 0.144,-0.203C0.137,-0.207 0.13,-0.209 0.122,-0.209C0.111,-0.209 0.099,-0.205 0.088,-0.198C0.076,-0.191 0.065,-0.181 0.055,-0.17C0.045,-0.158 0.037,-0.145 0.031,-0.13C0.024,-0.115 0.021,-0.101 0.021,-0.086C0.021,-0.079 0.022,-0.071 0.023,-0.064C0.024,-0.057 0.026,-0.05 0.03,-0.043C0.033,-0.036 0.038,-0.031 0.045,-0.027C0.051,-0.023 0.06,-0.021 0.071,-0.021C0.082,-0.021 0.093,-0.024 0.103,-0.03C0.113,-0.036 0.122,-0.044 0.13,-0.054Z" style="fill:rgb(0,164,255);fill-rule:nonzero;"/>
        </g>
        <g transform="matrix(198.709,0,0,198.709,325.468,478.934)">
            <path d="M0.248,-0.116C0.251,-0.114 0.253,-0.113 0.253,-0.112C0.253,-0.11 0.251,-0.103 0.246,-0.091C0.241,-0.079 0.235,-0.066 0.227,-0.052C0.218,-0.038 0.208,-0.025 0.197,-0.015C0.185,-0.004 0.172,0.002 0.158,0.002C0.143,0.002 0.13,-0.006 0.119,-0.022C0.108,-0.037 0.103,-0.056 0.103,-0.077C0.103,-0.089 0.104,-0.099 0.106,-0.109C0.107,-0.117 0.11,-0.128 0.113,-0.139C0.106,-0.126 0.098,-0.111 0.09,-0.096C0.082,-0.081 0.074,-0.066 0.067,-0.051C0.06,-0.036 0.053,-0.023 0.048,-0.01C0.042,0.003 0.038,0.013 0.036,0.02C0.033,0.028 0.029,0.034 0.023,0.039C0.016,0.044 0.009,0.046 0.002,0.046C-0.006,0.046 -0.014,0.043 -0.021,0.036C-0.028,0.029 -0.031,0.017 -0.031,-0C-0.031,-0.016 -0.028,-0.036 -0.024,-0.06C-0.019,-0.083 -0.012,-0.108 -0.005,-0.135C0.003,-0.161 0.012,-0.187 0.021,-0.214C0.03,-0.241 0.038,-0.265 0.047,-0.288C0.055,-0.31 0.062,-0.329 0.069,-0.345C0.076,-0.361 0.08,-0.372 0.082,-0.377C0.084,-0.384 0.086,-0.392 0.089,-0.399C0.091,-0.405 0.093,-0.411 0.095,-0.417C0.096,-0.423 0.097,-0.428 0.097,-0.432C0.098,-0.431 0.101,-0.43 0.107,-0.428C0.113,-0.425 0.12,-0.422 0.127,-0.418C0.134,-0.414 0.14,-0.409 0.145,-0.404C0.15,-0.398 0.153,-0.391 0.153,-0.384C0.153,-0.376 0.151,-0.367 0.148,-0.358C0.145,-0.351 0.139,-0.34 0.132,-0.323C0.124,-0.306 0.115,-0.287 0.105,-0.266C0.095,-0.244 0.085,-0.221 0.074,-0.196C0.063,-0.171 0.053,-0.146 0.044,-0.123C0.035,-0.099 0.027,-0.077 0.021,-0.057C0.015,-0.037 0.012,-0.021 0.012,-0.009C0.012,-0.01 0.012,-0.01 0.013,-0.01C0.041,-0.061 0.065,-0.101 0.085,-0.132C0.105,-0.163 0.121,-0.187 0.134,-0.205C0.146,-0.222 0.155,-0.235 0.16,-0.243C0.165,-0.25 0.167,-0.256 0.165,-0.261C0.166,-0.261 0.169,-0.26 0.174,-0.257C0.179,-0.254 0.184,-0.249 0.189,-0.245C0.194,-0.24 0.199,-0.234 0.204,-0.229C0.209,-0.223 0.211,-0.217 0.211,-0.211C0.211,-0.208 0.21,-0.203 0.208,-0.197C0.204,-0.186 0.199,-0.175 0.193,-0.165C0.186,-0.154 0.18,-0.142 0.174,-0.131C0.167,-0.12 0.162,-0.108 0.158,-0.096C0.153,-0.083 0.151,-0.071 0.151,-0.058C0.151,-0.051 0.152,-0.044 0.154,-0.038C0.155,-0.031 0.159,-0.028 0.166,-0.028C0.175,-0.028 0.187,-0.035 0.201,-0.049C0.215,-0.062 0.229,-0.084 0.242,-0.115C0.242,-0.116 0.243,-0.116 0.244,-0.116L0.248,-0.116Z" style="fill:rgb(0,164,255);fill-rule:nonzero;"/>
        </g>
        <g transform="matrix(198.709,0,0,198.709,371.171,478.934)">
            <path d="M0.274,-0.116C0.277,-0.114 0.279,-0.113 0.279,-0.112C0.279,-0.109 0.277,-0.101 0.273,-0.087C0.268,-0.073 0.262,-0.058 0.254,-0.042C0.246,-0.026 0.236,-0.012 0.225,0.002C0.213,0.015 0.2,0.021 0.185,0.021C0.175,0.021 0.165,0.017 0.155,0.009C0.144,0 0.137,-0.014 0.132,-0.035C0.129,-0.032 0.126,-0.028 0.123,-0.024C0.119,-0.019 0.114,-0.015 0.109,-0.012C0.103,-0.008 0.096,-0.005 0.089,-0.002C0.081,0.001 0.071,0.002 0.06,0.002C0.045,0.002 0.032,-0.002 0.023,-0.009C0.013,-0.016 0.005,-0.025 0,-0.036C-0.005,-0.047 -0.009,-0.058 -0.011,-0.069C-0.013,-0.08 -0.014,-0.089 -0.014,-0.097C-0.014,-0.116 -0.01,-0.135 -0.003,-0.156C0.004,-0.176 0.014,-0.194 0.028,-0.211C0.041,-0.228 0.056,-0.241 0.074,-0.252C0.091,-0.263 0.111,-0.268 0.132,-0.268C0.147,-0.268 0.158,-0.266 0.167,-0.262C0.175,-0.257 0.183,-0.253 0.19,-0.248C0.191,-0.25 0.192,-0.252 0.193,-0.255C0.193,-0.257 0.193,-0.259 0.194,-0.26C0.195,-0.26 0.198,-0.259 0.203,-0.256C0.208,-0.253 0.214,-0.249 0.22,-0.244C0.226,-0.239 0.231,-0.233 0.236,-0.228C0.241,-0.222 0.243,-0.216 0.243,-0.21C0.243,-0.205 0.242,-0.2 0.24,-0.195C0.238,-0.19 0.236,-0.184 0.233,-0.179L0.232,-0.179C0.227,-0.169 0.221,-0.158 0.215,-0.147C0.208,-0.135 0.202,-0.123 0.197,-0.111C0.192,-0.099 0.187,-0.087 0.184,-0.074C0.18,-0.061 0.178,-0.049 0.178,-0.037C0.178,-0.015 0.183,-0.004 0.192,-0.004C0.201,-0.004 0.213,-0.013 0.228,-0.032C0.243,-0.05 0.256,-0.078 0.268,-0.115C0.268,-0.116 0.269,-0.116 0.27,-0.116L0.274,-0.116ZM0.13,-0.054C0.13,-0.077 0.134,-0.1 0.141,-0.124C0.148,-0.148 0.156,-0.169 0.163,-0.186C0.157,-0.193 0.151,-0.198 0.144,-0.203C0.137,-0.207 0.13,-0.209 0.122,-0.209C0.111,-0.209 0.099,-0.205 0.088,-0.198C0.076,-0.191 0.065,-0.181 0.055,-0.17C0.045,-0.158 0.037,-0.145 0.031,-0.13C0.024,-0.115 0.021,-0.101 0.021,-0.086C0.021,-0.079 0.022,-0.071 0.023,-0.064C0.024,-0.057 0.026,-0.05 0.03,-0.043C0.033,-0.036 0.038,-0.031 0.045,-0.027C0.051,-0.023 0.06,-0.021 0.071,-0.021C0.082,-0.021 0.093,-0.024 0.103,-0.03C0.113,-0.036 0.122,-0.044 0.13,-0.054Z" style="fill:rgb(0,164,255);fill-rule:nonzero;"/>
        </g>
        <g transform="matrix(198.709,0,0,198.709,423.63,478.934)">
            <path d="M0.163,-0.02C0.16,-0.009 0.155,-0.003 0.148,-0.001C0.141,0.002 0.137,0.003 0.134,0.003C0.118,0.003 0.107,-0.003 0.102,-0.015C0.096,-0.027 0.093,-0.043 0.093,-0.063C0.093,-0.077 0.094,-0.092 0.097,-0.107C0.1,-0.122 0.103,-0.136 0.108,-0.151C0.098,-0.13 0.089,-0.11 0.081,-0.091C0.073,-0.072 0.066,-0.056 0.059,-0.043C0.051,-0.029 0.045,-0.018 0.039,-0.01C0.032,-0.002 0.026,0.002 0.019,0.002C0.004,0.002 -0.007,-0.003 -0.013,-0.014C-0.018,-0.025 -0.021,-0.04 -0.021,-0.061C-0.021,-0.086 -0.018,-0.112 -0.011,-0.138C-0.004,-0.163 0.005,-0.187 0.014,-0.208C0.023,-0.229 0.031,-0.246 0.038,-0.259C0.045,-0.272 0.05,-0.279 0.051,-0.279C0.056,-0.279 0.062,-0.278 0.069,-0.275C0.076,-0.272 0.082,-0.269 0.089,-0.266C0.096,-0.263 0.104,-0.259 0.112,-0.254C0.107,-0.243 0.099,-0.23 0.09,-0.214C0.08,-0.197 0.07,-0.18 0.061,-0.161C0.052,-0.142 0.043,-0.123 0.036,-0.104C0.029,-0.085 0.025,-0.067 0.025,-0.05C0.056,-0.107 0.083,-0.153 0.104,-0.186C0.125,-0.219 0.14,-0.24 0.148,-0.248C0.152,-0.255 0.156,-0.261 0.159,-0.268C0.165,-0.279 0.169,-0.289 0.172,-0.298C0.173,-0.298 0.175,-0.297 0.181,-0.294C0.186,-0.291 0.191,-0.286 0.196,-0.282C0.201,-0.277 0.206,-0.271 0.211,-0.266C0.216,-0.26 0.218,-0.254 0.218,-0.248C0.218,-0.239 0.214,-0.227 0.206,-0.212C0.198,-0.197 0.189,-0.181 0.18,-0.164C0.171,-0.147 0.162,-0.128 0.154,-0.109C0.145,-0.089 0.141,-0.069 0.14,-0.049C0.168,-0.1 0.191,-0.138 0.21,-0.166C0.228,-0.193 0.243,-0.214 0.255,-0.229C0.266,-0.244 0.275,-0.255 0.282,-0.264C0.288,-0.273 0.293,-0.284 0.296,-0.298C0.296,-0.298 0.299,-0.297 0.304,-0.294C0.309,-0.291 0.314,-0.287 0.319,-0.282C0.324,-0.277 0.329,-0.272 0.334,-0.267C0.339,-0.261 0.341,-0.255 0.341,-0.25C0.341,-0.241 0.337,-0.228 0.33,-0.213C0.322,-0.197 0.313,-0.18 0.304,-0.162C0.294,-0.144 0.285,-0.126 0.278,-0.107C0.27,-0.088 0.266,-0.071 0.266,-0.054C0.266,-0.047 0.267,-0.041 0.269,-0.036C0.27,-0.031 0.274,-0.028 0.279,-0.028C0.288,-0.028 0.3,-0.035 0.314,-0.049C0.328,-0.062 0.342,-0.084 0.355,-0.115C0.355,-0.115 0.356,-0.115 0.357,-0.116C0.36,-0.116 0.362,-0.115 0.364,-0.113L0.366,-0.111C0.366,-0.11 0.364,-0.103 0.36,-0.091C0.355,-0.079 0.349,-0.066 0.341,-0.053C0.332,-0.039 0.322,-0.026 0.311,-0.015C0.299,-0.004 0.286,0.002 0.271,0.002C0.258,0.002 0.247,-0.004 0.236,-0.017C0.225,-0.029 0.219,-0.047 0.219,-0.071C0.219,-0.088 0.222,-0.107 0.227,-0.127C0.232,-0.147 0.238,-0.166 0.245,-0.184C0.238,-0.171 0.23,-0.155 0.221,-0.138C0.212,-0.12 0.203,-0.103 0.195,-0.086C0.186,-0.069 0.179,-0.055 0.173,-0.043C0.167,-0.03 0.164,-0.023 0.163,-0.02Z" style="fill:rgb(0,164,255);fill-rule:nonzero;"/>
        </g>
        <g transform="matrix(198.709,0,0,198.709,515.632,478.934)">
            <path d="M0.496,-0.146C0.483,-0.121 0.468,-0.096 0.454,-0.072C0.439,-0.048 0.421,-0.027 0.401,-0.008C0.38,0.011 0.357,0.026 0.33,0.038C0.303,0.049 0.272,0.055 0.236,0.055C0.209,0.055 0.182,0.051 0.156,0.044C0.13,0.037 0.107,0.025 0.087,0.01C0.067,-0.006 0.051,-0.026 0.039,-0.051C0.027,-0.076 0.021,-0.105 0.021,-0.139C0.021,-0.168 0.025,-0.195 0.032,-0.22C0.039,-0.245 0.05,-0.268 0.065,-0.287C0.08,-0.306 0.098,-0.321 0.121,-0.332C0.143,-0.343 0.169,-0.348 0.2,-0.348C0.223,-0.348 0.245,-0.343 0.267,-0.334C0.288,-0.325 0.31,-0.313 0.331,-0.299C0.352,-0.284 0.372,-0.269 0.393,-0.252C0.414,-0.235 0.434,-0.218 0.455,-0.203C0.471,-0.239 0.484,-0.271 0.495,-0.3C0.505,-0.329 0.514,-0.351 0.521,-0.368C0.522,-0.371 0.524,-0.377 0.527,-0.384C0.53,-0.391 0.532,-0.399 0.535,-0.408C0.538,-0.417 0.54,-0.425 0.543,-0.434C0.545,-0.442 0.546,-0.449 0.546,-0.454C0.548,-0.453 0.552,-0.452 0.559,-0.45C0.565,-0.448 0.572,-0.445 0.579,-0.441C0.586,-0.437 0.592,-0.432 0.597,-0.426C0.602,-0.42 0.605,-0.413 0.605,-0.405C0.605,-0.4 0.604,-0.394 0.603,-0.389C0.601,-0.383 0.598,-0.376 0.595,-0.369C0.581,-0.339 0.567,-0.307 0.553,-0.273C0.539,-0.238 0.523,-0.203 0.506,-0.166C0.525,-0.153 0.544,-0.142 0.564,-0.135C0.584,-0.128 0.602,-0.122 0.619,-0.119C0.624,-0.145 0.632,-0.176 0.643,-0.212C0.653,-0.247 0.667,-0.288 0.684,-0.333C0.686,-0.339 0.688,-0.345 0.69,-0.351C0.691,-0.356 0.693,-0.362 0.694,-0.367C0.695,-0.372 0.696,-0.377 0.696,-0.381C0.696,-0.384 0.696,-0.386 0.695,-0.387C0.696,-0.386 0.701,-0.385 0.708,-0.383C0.715,-0.38 0.722,-0.377 0.73,-0.373C0.738,-0.369 0.745,-0.364 0.752,-0.359C0.758,-0.353 0.761,-0.346 0.761,-0.339C0.761,-0.331 0.759,-0.322 0.756,-0.313C0.747,-0.292 0.737,-0.27 0.727,-0.248C0.718,-0.229 0.709,-0.207 0.7,-0.184C0.69,-0.161 0.681,-0.137 0.672,-0.114C0.686,-0.115 0.697,-0.116 0.704,-0.117C0.711,-0.118 0.716,-0.118 0.72,-0.119C0.723,-0.12 0.724,-0.12 0.726,-0.121C0.727,-0.122 0.728,-0.122 0.729,-0.122C0.734,-0.122 0.736,-0.121 0.737,-0.119C0.737,-0.116 0.731,-0.112 0.72,-0.108C0.708,-0.104 0.69,-0.101 0.667,-0.1C0.66,-0.078 0.654,-0.058 0.65,-0.04C0.646,-0.022 0.644,-0.007 0.644,0.004C0.637,0.003 0.631,0.001 0.626,-0.002C0.621,-0.004 0.617,-0.007 0.613,-0.011C0.608,-0.014 0.605,-0.019 0.604,-0.025C0.604,-0.031 0.605,-0.038 0.606,-0.045C0.607,-0.059 0.61,-0.078 0.615,-0.103C0.598,-0.103 0.579,-0.108 0.558,-0.117C0.536,-0.126 0.516,-0.137 0.497,-0.148C0.496,-0.147 0.496,-0.147 0.496,-0.146ZM0.217,-0.318C0.192,-0.318 0.169,-0.314 0.15,-0.305C0.131,-0.296 0.114,-0.284 0.101,-0.269C0.088,-0.253 0.078,-0.234 0.071,-0.213C0.064,-0.192 0.061,-0.168 0.061,-0.143C0.061,-0.118 0.065,-0.097 0.074,-0.079C0.083,-0.06 0.095,-0.045 0.11,-0.033C0.125,-0.021 0.143,-0.012 0.164,-0.006C0.184,0 0.206,0.003 0.23,0.003C0.259,0.003 0.284,-0.002 0.306,-0.013C0.328,-0.024 0.347,-0.038 0.365,-0.056C0.382,-0.073 0.396,-0.093 0.409,-0.115C0.422,-0.137 0.434,-0.159 0.445,-0.182C0.431,-0.191 0.415,-0.204 0.396,-0.219C0.377,-0.234 0.358,-0.249 0.338,-0.264C0.317,-0.279 0.297,-0.291 0.276,-0.302C0.255,-0.313 0.236,-0.318 0.217,-0.318Z" style="fill:rgb(0,164,255);fill-rule:nonzero;"/>
        </g>
        <g transform="matrix(198.709,0,0,198.709,659.299,478.934)">
            <path d="M0.274,-0.116C0.277,-0.114 0.279,-0.113 0.279,-0.112C0.279,-0.109 0.277,-0.101 0.273,-0.087C0.268,-0.073 0.262,-0.058 0.254,-0.042C0.246,-0.026 0.236,-0.012 0.225,0.002C0.213,0.015 0.2,0.021 0.185,0.021C0.175,0.021 0.165,0.017 0.155,0.009C0.144,0 0.137,-0.014 0.132,-0.035C0.129,-0.032 0.126,-0.028 0.123,-0.024C0.119,-0.019 0.114,-0.015 0.109,-0.012C0.103,-0.008 0.096,-0.005 0.089,-0.002C0.081,0.001 0.071,0.002 0.06,0.002C0.045,0.002 0.032,-0.002 0.023,-0.009C0.013,-0.016 0.005,-0.025 0,-0.036C-0.005,-0.047 -0.009,-0.058 -0.011,-0.069C-0.013,-0.08 -0.014,-0.089 -0.014,-0.097C-0.014,-0.116 -0.01,-0.135 -0.003,-0.156C0.004,-0.176 0.014,-0.194 0.028,-0.211C0.041,-0.228 0.056,-0.241 0.074,-0.252C0.091,-0.263 0.111,-0.268 0.132,-0.268C0.147,-0.268 0.158,-0.266 0.167,-0.262C0.175,-0.257 0.183,-0.253 0.19,-0.248C0.191,-0.25 0.192,-0.252 0.193,-0.255C0.193,-0.257 0.193,-0.259 0.194,-0.26C0.195,-0.26 0.198,-0.259 0.203,-0.256C0.208,-0.253 0.214,-0.249 0.22,-0.244C0.226,-0.239 0.231,-0.233 0.236,-0.228C0.241,-0.222 0.243,-0.216 0.243,-0.21C0.243,-0.205 0.242,-0.2 0.24,-0.195C0.238,-0.19 0.236,-0.184 0.233,-0.179L0.232,-0.179C0.227,-0.169 0.221,-0.158 0.215,-0.147C0.208,-0.135 0.202,-0.123 0.197,-0.111C0.192,-0.099 0.187,-0.087 0.184,-0.074C0.18,-0.061 0.178,-0.049 0.178,-0.037C0.178,-0.015 0.183,-0.004 0.192,-0.004C0.201,-0.004 0.213,-0.013 0.228,-0.032C0.243,-0.05 0.256,-0.078 0.268,-0.115C0.268,-0.116 0.269,-0.116 0.27,-0.116L0.274,-0.116ZM0.13,-0.054C0.13,-0.077 0.134,-0.1 0.141,-0.124C0.148,-0.148 0.156,-0.169 0.163,-0.186C0.157,-0.193 0.151,-0.198 0.144,-0.203C0.137,-0.207 0.13,-0.209 0.122,-0.209C0.111,-0.209 0.099,-0.205 0.088,-0.198C0.076,-0.191 0.065,-0.181 0.055,-0.17C0.045,-0.158 0.037,-0.145 0.031,-0.13C0.024,-0.115 0.021,-0.101 0.021,-0.086C0.021,-0.079 0.022,-0.071 0.023,-0.064C0.024,-0.057 0.026,-0.05 0.03,-0.043C0.033,-0.036 0.038,-0.031 0.045,-0.027C0.051,-0.023 0.06,-0.021 0.071,-0.021C0.082,-0.021 0.093,-0.024 0.103,-0.03C0.113,-0.036 0.122,-0.044 0.13,-0.054Z" style="fill:rgb(0,164,255);fill-rule:nonzero;"/>
        </g>
        <g transform="matrix(198.709,0,0,198.709,711.758,478.934)">
            <path d="M0.112,-0.469C0.113,-0.469 0.117,-0.468 0.123,-0.465C0.129,-0.462 0.136,-0.459 0.143,-0.455C0.15,-0.45 0.156,-0.445 0.161,-0.439C0.166,-0.433 0.169,-0.427 0.169,-0.42C0.169,-0.414 0.168,-0.408 0.166,-0.402C0.163,-0.395 0.161,-0.389 0.158,-0.384C0.153,-0.374 0.147,-0.359 0.138,-0.34C0.129,-0.32 0.119,-0.298 0.108,-0.274C0.097,-0.249 0.086,-0.224 0.075,-0.197C0.064,-0.17 0.054,-0.145 0.045,-0.121C0.035,-0.096 0.028,-0.074 0.023,-0.054C0.017,-0.033 0.014,-0.017 0.014,-0.006C0.014,-0.005 0.014,-0.003 0.015,-0.001C0.015,0.001 0.016,0.002 0.017,0.002C0.02,0.002 0.029,-0.004 0.043,-0.016C0.056,-0.028 0.074,-0.051 0.095,-0.086C0.1,-0.091 0.104,-0.094 0.106,-0.094C0.107,-0.093 0.108,-0.092 0.108,-0.089C0.108,-0.083 0.104,-0.073 0.096,-0.058C0.088,-0.043 0.079,-0.029 0.068,-0.014C0.057,0.002 0.045,0.015 0.034,0.026C0.022,0.037 0.012,0.043 0.005,0.043C0.002,0.043 -0.001,0.043 -0.005,0.043C-0.008,0.042 -0.012,0.041 -0.016,0.038C-0.019,0.035 -0.022,0.031 -0.025,0.026C-0.028,0.02 -0.029,0.012 -0.029,0.002C-0.029,-0.012 -0.027,-0.03 -0.023,-0.051C-0.018,-0.072 -0.012,-0.095 -0.006,-0.121C0.002,-0.146 0.01,-0.172 0.019,-0.199C0.028,-0.226 0.037,-0.253 0.046,-0.279C0.055,-0.305 0.064,-0.33 0.073,-0.353C0.082,-0.376 0.09,-0.397 0.097,-0.414C0.099,-0.421 0.101,-0.429 0.104,-0.436C0.106,-0.442 0.108,-0.448 0.11,-0.454C0.111,-0.46 0.112,-0.465 0.112,-0.469Z" style="fill:rgb(0,164,255);fill-rule:nonzero;"/>
        </g>
        <g transform="matrix(198.709,0,0,198.709,729.244,478.934)">
            <path d="M0.112,-0.469C0.113,-0.469 0.117,-0.468 0.123,-0.465C0.129,-0.462 0.136,-0.459 0.143,-0.455C0.15,-0.45 0.156,-0.445 0.161,-0.439C0.166,-0.433 0.169,-0.427 0.169,-0.42C0.169,-0.414 0.168,-0.408 0.166,-0.402C0.163,-0.395 0.161,-0.389 0.158,-0.384C0.153,-0.374 0.147,-0.359 0.138,-0.34C0.129,-0.32 0.119,-0.298 0.108,-0.274C0.097,-0.249 0.086,-0.224 0.075,-0.197C0.064,-0.17 0.054,-0.145 0.045,-0.121C0.035,-0.096 0.028,-0.074 0.023,-0.054C0.017,-0.033 0.014,-0.017 0.014,-0.006C0.014,-0.005 0.014,-0.003 0.015,-0.001C0.015,0.001 0.016,0.002 0.017,0.002C0.02,0.002 0.029,-0.004 0.043,-0.016C0.056,-0.028 0.074,-0.051 0.095,-0.086C0.1,-0.091 0.104,-0.094 0.106,-0.094C0.107,-0.093 0.108,-0.092 0.108,-0.089C0.108,-0.083 0.104,-0.073 0.096,-0.058C0.088,-0.043 0.079,-0.029 0.068,-0.014C0.057,0.002 0.045,0.015 0.034,0.026C0.022,0.037 0.012,0.043 0.005,0.043C0.002,0.043 -0.001,0.043 -0.005,0.043C-0.008,0.042 -0.012,0.041 -0.016,0.038C-0.019,0.035 -0.022,0.031 -0.025,0.026C-0.028,0.02 -0.029,0.012 -0.029,0.002C-0.029,-0.012 -0.027,-0.03 -0.023,-0.051C-0.018,-0.072 -0.012,-0.095 -0.006,-0.121C0.002,-0.146 0.01,-0.172 0.019,-0.199C0.028,-0.226 0.037,-0.253 0.046,-0.279C0.055,-0.305 0.064,-0.33 0.073,-0.353C0.082,-0.376 0.09,-0.397 0.097,-0.414C0.099,-0.421 0.101,-0.429 0.104,-0.436C0.106,-0.442 0.108,-0.448 0.11,-0.454C0.111,-0.46 0.112,-0.465 0.112,-0.469Z" style="fill:rgb(0,164,255);fill-rule:nonzero;"/>
        </g>
    </g>
</svg>
